**ABCDEFGHIJKLMNOPQRSTUVWXYZabcdefghijklmnopqrstuvwxyz**************************
**PARASOLID !"#$%&'()*+,-./:;<=>?@[\]^_`{|}~0123456789**************************
**PART1;
MC=AMD64;
MC_MODEL=AMD64 Family 23 Model 113 Stepping 0, AuthenticAMD;
MC_ID=unknown;
OS=Windows_NT;
OS_RELEASE=unknown;
FRU=Parasolid Version 36.1, build 212,  6-28-2024;
APPL=SOLIDWORKS 2025-2025012;
SITE=;
USER=unknown;
FORMAT=text;
GUISE=transmit;
KEY=makeProjectedPlanarWire;
FILE=makeProjectedPlanarWire.x_t;
DATE=Sat May 17 00:30:35 2025;
**PART2;
SCH=SCH_3601212_36001;
USFLD_SIZE=0;
**PART3;
**END_OF_HEADER*****************************************************************
T51 : TRANSMIT FILE created by modeller version 360121223 SCH_3601212_36001_1300
6231 0 12 36 CCCI7 lattice222 0 CCCI4 mesh1006 0 I8 polyline1008 0 CCCCCCCDI5 ow
ner1040 0 CCCI16 boundary_lattice222 0 CCCI13 boundary_mesh1006 0 I17 boundary_p
olyline1008 0 CCCA16 index_map_offset0 0 1 dA9 index_map82 0 A17 node_id_index_m
ap82 0 A20 schema_embedding_map82 0 A5 child12 0 A14 lowest_node_id0 0 1 dA16 me
sh_offset_data206 0 Z1 1869 0 0 0 0 0 0 0 0 0 1e3 1e-8 0 2 0 1 0 3 1 3 0 4 5 6 0
 0 7 8 9 0 0 0 0 0 0 0 13 255 3 186 0 1 0 10 0 0 7 10 50 255 4 3 0 10 0 0 0 +0 .
003 0 0 1 0 0 0 1 31 255 5 131 0 8 11 0 0 +.009 .003 -.0055 0 1 0 0 0 1 .0031 29
 255 6 184 0 9 12 0 .009 .003 -.0086 19 9 CCCCCCI5 frame230 0 CA5 owner12 0 Z7 1
85 0 1 0 0 3 0 V0 16 255 8 129 0 ?13 0 14 5 0 0 1 18 255 9 182 0 15 0 16 6 ?1 17
 255 15 0 0 0 0 9 17 18 0 13 -18 16 179 0 19 9 20 12 ?1 17 19 0 21 13 22 16 23 1
4 0 24 +18 20 176 0 22 16 25 26 ?1 29 12 181 0 16 26 6 .0121 .003 -.0055 29 26 1
78 0 20 27 12 .0121 .003 .0055 29 27 175 0 25 28 26 .009 .003 .0086 18 25 173 0
 29 20 30 27 ?1 29 28 172 0 30 31 27 -.009 .003 .0086 18 30 170 0 32 25 33 28 ?1
 29 31 169 0 33 34 28 -.0121 .003 .0055 18 33 167 0 35 30 36 31 ?1 29 34 166 0 3
6 37 31 -.0121 .003 -.0055 18 36 164 0 38 33 39 34 ?1 29 37 163 0 39 40 34 -.009
 .003 -.0086 18 39 161 0 17 36 41 37 ?1 29 40 160 0 41 42 37 .011 .003 .0055 18
 41 158 0 43 39 44 40 ?1 29 42 157 0 44 45 40 .011 .003 -.0055 18 44 155 0 46 41
 47 42 ?1 29 45 154 0 47 48 42 .009 .003 -.0075 18 47 152 0 49 44 50 45 ?1 29 48
 151 0 50 51 45 -.009 .003 -.0075 18 50 149 0 52 47 53 48 ?1 29 51 148 0 53 54 4
8 -.011 .003 -.0055 18 53 146 0 55 50 56 51 ?1 29 54 145 0 56 57 51 -.011 .003 .
0055 18 56 143 0 58 53 59 54 ?1 29 57 142 0 59 60 54 -.009 .003 .0075 18 59 140
 0 61 56 62 57 ?1 29 60 139 0 62 0 57 .009 .003 .0075 18 62 137 0 63 59 0 60 ?1
 17 63 0 64 61 65 62 43 66 0 67 +15 255 64 7 0 63 10 21 17 61 0 64 58 63 59 67 6
8 0 69 +17 65 0 64 63 46 41 70 71 0 0 +17 43 0 0 0 0 41 63 66 0 65 -16 66 9 0 ?6
3 68 0 72 0 0 1 17 67 0 0 0 0 62 61 68 0 0 -16 68 17 0 ?61 73 66 74 0 0 1 16 73
 25 0 ?58 75 68 76 0 0 1 30 255 74 19 0 68 72 76 0 +0 .003 .0075 -1 0 0 31 72 11
 0 66 0 74 0 -.009 .003 .0055 0 1 0 0 0 1 .002 31 76 27 0 73 74 77 0 --.009 .003
 .0055 0 1 0 0 0 1 .002 30 77 35 0 75 76 78 0 +-.011 .003 0 0 0 -1 16 75 33 0 ?5
5 79 73 77 0 0 1 31 78 43 0 79 77 80 0 --.009 .003 -.0055 0 1 0 0 0 1 .002 16 79
 41 0 ?52 81 75 78 0 0 1 30 80 51 0 81 78 82 0 +0 .003 -.0075 1 0 0 16 81 49 0 ?
49 83 79 80 0 0 1 31 82 59 0 83 80 84 0 -.009 .003 -.0055 0 1 0 0 0 1 .002 16 83
 57 0 ?46 71 81 82 0 0 1 30 84 67 0 71 82 85 0 +.011 .003 -520417042793043e-32 4
7310640253913e-29 0 1 16 71 65 0 ?65 18 83 84 0 0 1 30 85 75 0 18 84 86 0 +0 .00
3 -.0086 -1 0 0 16 18 73 0 ?17 87 71 85 0 0 1 31 86 83 0 87 85 88 0 +-.009 .003
 -.0055 0 1 0 0 0 1 .0031 16 87 81 0 ?38 89 18 86 0 0 1 30 88 91 0 89 86 90 0 +-
.0121 .003 0 0 0 1 16 89 89 0 ?35 91 87 88 0 0 1 31 90 99 0 91 88 92 0 +-.009 .0
03 .0055 0 1 0 0 0 1 .0031 16 91 97 0 ?32 93 89 90 0 0 1 30 92 107 0 93 90 94 0
 +0 .003 .0086 1 0 0 16 93 105 0 ?29 95 91 92 0 0 1 31 94 115 0 95 92 11 0 +.009
 .003 .0055 0 1 0 0 0 1 .0031 16 95 113 0 ?22 14 93 94 0 0 1 30 11 123 0 14 94 5
 0 +.0121 .003 0 0 0 -1 16 14 121 0 ?19 8 95 11 0 0 1 17 22 0 21 19 29 20 96 95
 0 23 +15 21 8 0 17 10 0 17 29 0 21 22 32 25 97 93 0 96 +17 96 0 0 0 0 25 22 95
 0 0 -17 23 0 0 0 0 20 19 14 0 0 -17 32 0 21 29 35 30 98 91 0 97 +17 97 0 0 0 0
 30 29 93 0 0 -17 35 0 21 32 38 33 99 89 0 98 +17 98 0 0 0 0 33 32 91 0 0 -17 38
 0 21 35 17 36 100 87 0 99 +17 99 0 0 0 0 36 35 89 0 0 -17 17 0 21 38 13 39 15 1
8 0 100 +17 100 0 0 0 0 39 38 87 0 0 -17 13 0 21 17 19 9 24 8 0 0 +17 24 0 0 0 0
 16 13 8 0 0 -14 255 10 1 0 ?0 0 64 3 4 +0 0 0 0 3 17 46 0 64 65 49 44 101 83 0
 70 +17 49 0 64 46 52 47 102 81 0 101 +17 101 0 0 0 0 47 46 83 0 0 -17 70 0 0 0
 0 44 65 71 0 0 -17 52 0 64 49 55 50 103 79 0 102 +17 102 0 0 0 0 50 49 81 0 0 -
17 55 0 64 52 58 53 104 75 0 103 +17 103 0 0 0 0 53 52 79 0 0 -17 58 0 64 55 61
 56 69 73 0 104 +17 104 0 0 0 0 56 55 75 0 0 -17 69 0 0 0 0 59 58 73 0 0 -1 0 
